<svg aria-hidden="true" style="position: absolute; width: 0; height: 0; overflow: hidden;" version="1.1" xmlns="http://www.w3.org/2000/svg" xmlns:xlink="http://www.w3.org/1999/xlink">
    <defs>
        <symbol id="icon-arrow" viewBox="0 0 32 32">
            <path d="M9.841 16.514c-0.284-0.284-0.284-0.745 0-1.028l4.628-4.628c0.284-0.284 0.745-0.284 1.029 0s0.284 0.745 0 1.028l-4.114 4.114 4.114 4.114c0.284 0.284 0.284 0.744 0 1.029s-0.745 0.284-1.029 0l-4.628-4.628zM22.545 16.727h-12.19v-1.455h12.19v1.455z"></path>
        </symbol>
        <symbol id="icon-facebook" viewBox="0 0 32 32">
            <path d="M0 16c0-8.837 7.163-16 16-16s16 7.163 16 16c0 8.837-7.163 16-16 16s-16-7.163-16-16zM17.668 25.408v-8.705h2.403l0.319-3h-2.721l0.004-1.501c0-0.782 0.074-1.202 1.198-1.202h1.502v-3h-2.403c-2.887 0-3.903 1.455-3.903 3.902v1.801h-1.799v3h1.799v8.705h3.602z"></path>
        </symbol>
        <symbol id="icon-instagram" viewBox="0 0 32 32">
            <path d="M0 16c0-8.837 7.163-16 16-16s16 7.163 16 16c0 8.837-7.163 16-16 16s-16-7.163-16-16zM16.001 7.467c-2.317 0-2.608 0.010-3.519 0.052-0.909 0.042-1.528 0.185-2.071 0.396-0.561 0.218-1.037 0.51-1.512 0.984s-0.766 0.95-0.985 1.511c-0.212 0.543-0.356 1.163-0.396 2.071-0.041 0.91-0.051 1.201-0.051 3.519s0.010 2.607 0.052 3.518c0.042 0.909 0.186 1.529 0.396 2.071 0.218 0.561 0.51 1.037 0.984 1.512s0.95 0.767 1.511 0.985c0.543 0.211 1.163 0.355 2.072 0.396 0.91 0.041 1.201 0.052 3.518 0.052s2.608-0.010 3.518-0.052c0.908-0.042 1.529-0.185 2.072-0.396 0.561-0.218 1.036-0.51 1.511-0.985s0.766-0.95 0.985-1.512c0.21-0.543 0.354-1.163 0.396-2.071 0.041-0.91 0.052-1.2 0.052-3.518s-0.011-2.608-0.052-3.519c-0.043-0.909-0.187-1.529-0.396-2.071-0.219-0.561-0.51-1.037-0.985-1.512s-0.949-0.766-1.511-0.984c-0.544-0.211-1.164-0.355-2.073-0.396-0.91-0.041-1.2-0.052-3.518-0.052h0.003z"></path>
            <path d="M15.235 9.005c0.227-0 0.481 0 0.766 0 2.278 0 2.548 0.008 3.448 0.049 0.832 0.038 1.284 0.177 1.584 0.294 0.398 0.155 0.682 0.34 0.981 0.638s0.484 0.583 0.639 0.981c0.117 0.3 0.256 0.752 0.294 1.584 0.041 0.899 0.050 1.17 0.050 3.447s-0.009 2.548-0.050 3.447c-0.038 0.832-0.177 1.284-0.294 1.584-0.155 0.398-0.34 0.682-0.639 0.98s-0.582 0.483-0.981 0.638c-0.3 0.117-0.752 0.256-1.584 0.294-0.9 0.041-1.17 0.050-3.448 0.050s-2.549-0.009-3.448-0.050c-0.832-0.038-1.284-0.177-1.585-0.294-0.398-0.155-0.683-0.34-0.981-0.638s-0.484-0.582-0.639-0.981c-0.117-0.3-0.256-0.752-0.294-1.584-0.041-0.9-0.049-1.17-0.049-3.449s0.008-2.548 0.049-3.447c0.038-0.832 0.177-1.284 0.294-1.584 0.155-0.398 0.34-0.683 0.639-0.981s0.583-0.484 0.981-0.639c0.301-0.117 0.753-0.256 1.585-0.294 0.787-0.036 1.092-0.046 2.683-0.048v0.002zM20.555 10.422c-0.565 0-1.024 0.458-1.024 1.024s0.459 1.024 1.024 1.024c0.565 0 1.024-0.459 1.024-1.024s-0.459-1.024-1.024-1.024zM16 11.618c-2.42 0-4.382 1.962-4.382 4.382s1.962 4.381 4.382 4.381c2.42 0 4.381-1.961 4.381-4.381s-1.961-4.382-4.381-4.382z"></path>
            <path d="M16.001 13.155c1.571 0 2.845 1.273 2.845 2.844s-1.274 2.845-2.845 2.845c-1.571 0-2.845-1.274-2.845-2.845s1.273-2.844 2.845-2.844z"></path>
        </symbol>
        <symbol id="icon-menu" viewBox="0 0 32 32">
            <path d="M29.333 24.007c0 0.733-0.595 1.327-1.327 1.327h-10.68c-0.352 0-0.689-0.14-0.938-0.389s-0.389-0.586-0.389-0.938c0-0.352 0.14-0.689 0.389-0.938s0.586-0.389 0.938-0.389h10.68c0.733 0 1.327 0.593 1.327 1.327zM29.333 16c0 0.733-0.595 1.327-1.327 1.327h-24.013c-0.352 0-0.689-0.14-0.938-0.389s-0.389-0.586-0.389-0.938c0-0.352 0.14-0.689 0.389-0.938s0.586-0.389 0.938-0.389h24.013c0.733 0 1.327 0.595 1.327 1.327zM28.007 9.32c0.352 0 0.689-0.14 0.938-0.389s0.389-0.586 0.389-0.938c0-0.352-0.14-0.689-0.389-0.938s-0.586-0.389-0.938-0.389h-16.013c-0.174 0-0.347 0.034-0.508 0.101s-0.307 0.164-0.43 0.288c-0.123 0.123-0.221 0.269-0.288 0.43s-0.101 0.333-0.101 0.508c0 0.174 0.034 0.347 0.101 0.508s0.164 0.307 0.288 0.43c0.123 0.123 0.269 0.221 0.43 0.288s0.333 0.101 0.508 0.101h16.013z"></path>
        </symbol>
        <symbol id="icon-close" viewBox="0 0 32 32">
            <path fill="none" stroke="#31261a" style="stroke: var(--color3, #31261a)" stroke-linejoin="miter" stroke-linecap="round" stroke-miterlimit="4" stroke-width="2.6667" d="M12 8l8 8 8-8"></path>
            <path fill="none" stroke="#31261a" style="stroke: var(--color3, #31261a)" stroke-linejoin="miter" stroke-linecap="round" stroke-miterlimit="4" stroke-width="2.6667" d="M12 24l8-8 8 8"></path>
        </symbol>
        <symbol id="logo-dark" viewBox="0 0 74 32">
            <path d="M4.032 7.661l-1.226-0.742c-0.769-0.468-1.317-0.927-1.645-1.379-0.323-0.457-0.484-0.981-0.484-1.573 0-0.887 0.306-1.608 0.919-2.161 0.618-0.554 1.419-0.831 2.403-0.831 0.941 0 1.804 0.263 2.589 0.79v1.831c-0.812-0.78-1.685-1.169-2.621-1.169-0.527 0-0.96 0.124-1.298 0.371-0.339 0.242-0.508 0.554-0.508 0.935 0 0.339 0.124 0.656 0.371 0.952s0.648 0.605 1.202 0.927l1.234 0.726c1.376 0.817 2.065 1.86 2.065 3.129 0 0.903-0.304 1.637-0.911 2.202-0.602 0.565-1.387 0.847-2.355 0.847-1.113 0-2.126-0.341-3.040-1.024v-2.048c0.871 1.102 1.879 1.653 3.024 1.653 0.505 0 0.925-0.14 1.258-0.419 0.339-0.285 0.508-0.64 0.508-1.065 0-0.688-0.495-1.339-1.484-1.952zM16.75 1.121h1.613v11.266h-1.613v-4.903h-6.331v4.903h-1.613v-11.266h1.613v4.871h6.331v-4.871zM26.387 0.96c1.742 0 3.191 0.551 4.347 1.653 1.161 1.102 1.742 2.484 1.742 4.145s-0.586 3.038-1.758 4.129c-1.167 1.086-2.64 1.629-4.419 1.629-1.699 0-3.116-0.543-4.25-1.629-1.129-1.091-1.694-2.457-1.694-4.097 0-1.683 0.57-3.075 1.71-4.177s2.581-1.653 4.323-1.653zM26.452 2.492c-1.29 0-2.352 0.403-3.185 1.21-0.828 0.806-1.242 1.836-1.242 3.089 0 1.215 0.417 2.226 1.25 3.032s1.876 1.21 3.129 1.21c1.258 0 2.306-0.411 3.145-1.234 0.844-0.823 1.266-1.847 1.266-3.073 0-1.194-0.422-2.196-1.266-3.008-0.839-0.817-1.871-1.226-3.097-1.226zM34.363 12.387v-11.282h3.573c1.075 0 1.933 0.29 2.573 0.871s0.96 1.36 0.96 2.339c0 0.656-0.164 1.237-0.492 1.742s-0.777 0.874-1.347 1.105c-0.57 0.226-1.387 0.339-2.452 0.339h-1.194v4.887h-1.621zM37.653 2.54h-1.669v3.524h1.766c0.656 0 1.161-0.153 1.516-0.46 0.355-0.312 0.532-0.755 0.532-1.331 0-1.156-0.715-1.734-2.145-1.734zM11.613 28.831c0 0.962-0.331 1.731-0.992 2.306-0.656 0.575-1.575 0.863-2.758 0.863h-6.46v-11.177h5.403c0.699 0 1.306 0.067 1.823 0.202 0.521 0.134 0.941 0.32 1.258 0.556 0.317 0.231 0.554 0.505 0.71 0.823s0.234 0.664 0.234 1.040c0 0.409-0.081 0.788-0.242 1.137-0.161 0.344-0.363 0.629-0.605 0.855-0.237 0.221-0.476 0.376-0.718 0.468 0.763 0.301 1.344 0.683 1.742 1.145 0.403 0.457 0.605 1.051 0.605 1.782zM7.677 24.040c0-0.538-0.177-0.895-0.532-1.073s-0.909-0.266-1.661-0.266h-0.71v2.677h0.726c0.769 0 1.323-0.089 1.661-0.266 0.344-0.177 0.516-0.535 0.516-1.073zM8.226 28.694c0-0.957-0.694-1.436-2.081-1.436h-1.371v2.863h1.371c1.387 0 2.081-0.476 2.081-1.427zM25.564 32h-3.452l-0.911-2.266h-4.855l-0.927 2.266h-3.452l4.943-11.177h3.726l4.927 11.177zM20.427 27.79l-1.637-4.081-1.653 4.081h3.29zM38.806 32h-4.113l-4.274-5.234v5.234h-3.371v-11.177h3.371v5l4.048-5h3.661l-4.161 5.234 4.839 5.944zM48.702 32h-8.427v-11.177h8.29v2.242h-4.919v2.048h4.694v2.25h-4.694v2.387h5.057v2.25zM61.79 32h-3.621l-0.879-1.984c-0.323-0.726-0.613-1.255-0.871-1.589-0.258-0.339-0.511-0.554-0.758-0.645-0.242-0.097-0.556-0.145-0.944-0.145h-0.379v4.363h-3.371v-11.177h5.734c0.925 0 1.683 0.188 2.274 0.565s1.016 0.833 1.274 1.371c0.263 0.538 0.395 1.048 0.395 1.532 0 0.565-0.11 1.043-0.331 1.436-0.215 0.387-0.444 0.669-0.686 0.847s-0.513 0.347-0.814 0.508c0.36 0.21 0.656 0.46 0.887 0.75 0.237 0.285 0.556 0.866 0.96 1.742l1.129 2.427zM57.21 24.355c0-0.516-0.169-0.876-0.508-1.081s-0.89-0.306-1.653-0.306h-0.71v2.694h0.726c0.822 0 1.384-0.089 1.685-0.266 0.306-0.183 0.46-0.53 0.46-1.040zM73.742 20.823l-4.379 6.056v5.121h-3.371v-5.056l-4.46-6.121h3.5l2.565 3.516 2.573-3.516h3.573z"></path>
        </symbol>
    </defs>
    </svg>
